<svg width="12" height="4" viewBox="0 0 12 4" fill="none" xmlns="http://www.w3.org/2000/svg">
<path d="M1.50533 3.13281C2.21768 3.13281 2.82741 2.54119 2.83345 1.80469C2.82741 1.08026 2.21768 0.488636 1.50533 0.488636C0.768821 0.488636 0.171165 1.08026 0.177202 1.80469C0.171165 2.54119 0.768821 3.13281 1.50533 3.13281ZM5.89418 3.13281C6.60653 3.13281 7.21626 2.54119 7.2223 1.80469C7.21626 1.08026 6.60653 0.488636 5.89418 0.488636C5.15767 0.488636 4.56001 1.08026 4.56605 1.80469C4.56001 2.54119 5.15767 3.13281 5.89418 3.13281ZM10.277 3.13281C10.9893 3.13281 11.5991 2.54119 11.6051 1.80469C11.5991 1.08026 10.9893 0.488636 10.277 0.488636C9.54048 0.488636 8.94283 1.08026 8.94886 1.80469C8.94283 2.54119 9.54048 3.13281 10.277 3.13281Z" fill="#8DA1B2"/>
</svg>
